<svg width="72" height="72" viewBox="0 0 72 72" fill="none" xmlns="http://www.w3.org/2000/svg">
<g clip-path="url(#clip0_4393_15134)">
<rect x="2" y="2" width="68" height="68" rx="34" fill="white"/>
<path d="M64.003 51.1367H7.99097C7.46923 51.1367 6.98947 51.4186 6.7256 51.8684C6.46773 52.3242 6.47373 52.882 6.7376 53.3318C9.69412 58.3158 13.91 62.49 18.9175 65.4108C24.0809 68.4156 29.982 70.0049 35.991 70.0049C42 70.0049 47.901 68.4156 53.0644 65.4108C58.0719 62.496 62.2818 58.3158 65.2443 53.3318C65.5082 52.882 65.5142 52.3242 65.2563 51.8684C64.9985 51.4126 64.5127 51.1367 63.997 51.1367H64.003Z" fill="#5B98D2"/>
<path d="M67.3253 22.7616C65.6102 18.7133 63.1574 15.0788 60.039 11.9541C56.9145 8.82937 53.2804 6.38238 49.2324 4.66709C45.0405 2.89182 40.5907 1.99219 35.997 1.99219C31.4033 1.99219 26.9535 2.89182 22.7616 4.66709C18.7136 6.38238 15.0735 8.82937 11.955 11.9541C8.83059 15.0788 6.38381 18.7133 4.66867 22.7616C2.89955 26.9599 2 31.4101 2 35.9982C2 40.2204 2.76762 44.3467 4.27886 48.2571C4.50075 48.8329 5.05247 49.1868 5.63418 49.1868C5.8081 49.1868 5.98801 49.1568 6.16192 49.0908C6.91154 48.8029 7.28336 47.9573 6.98951 47.2136C5.61019 43.639 4.90855 39.8666 4.90855 36.0042C4.90855 31.8059 5.73014 27.7336 7.35532 23.9012C8.92054 20.2007 11.1634 16.8721 14.018 14.0172C16.8726 11.1624 20.2009 8.91934 23.9011 7.35398C27.7331 5.73465 31.8051 4.91298 36.003 4.91298C40.2009 4.91298 44.2729 5.73465 48.1049 7.35398C51.8051 8.91934 55.1334 11.1624 57.988 14.0172C60.8426 16.8721 63.0855 20.2007 64.6507 23.9012C66.2699 27.7336 67.0915 31.8059 67.0915 36.0042C67.0915 39.8726 66.3898 43.639 65.0105 47.2136C64.7226 47.9633 65.0945 48.8029 65.8441 49.0908C66.5937 49.3787 67.4333 49.0068 67.7211 48.2571C69.2324 44.3467 70 40.2264 70 35.9982C70 31.4101 69.1004 26.9539 67.3313 22.7616H67.3253Z" fill="#5B98D2"/>
<path d="M51.6612 18.7325C51.6612 19.5301 51.0135 20.1838 50.2099 20.1838C49.4063 20.1838 48.7587 19.5361 48.7587 18.7325C48.7587 17.9289 49.4063 17.2812 50.2099 17.2812C51.0135 17.2812 51.6612 17.9289 51.6612 18.7325Z" fill="#F08300"/>
<path d="M35.4393 23.8501C35.4393 25.4992 36.7827 26.8426 38.4318 26.8426H40.7527V25.4932H38.4318C37.5263 25.4932 36.7887 24.7556 36.7887 23.8441C36.7887 22.9325 37.5263 22.2009 38.4318 22.2009H40.7527V20.8516H38.4318C36.7827 20.8516 35.4393 22.1949 35.4393 23.8441V23.8501Z" fill="#7D8488"/>
<path d="M41.0885 23.8501C41.0885 25.4992 42.4318 26.8426 44.087 26.8426H46.4078V25.4932H44.087C43.1815 25.4932 42.4378 24.7556 42.4378 23.8441C42.4378 22.9325 43.1755 22.2009 44.087 22.2009H46.4078V20.8516H44.087C42.4318 20.8516 41.0885 22.1949 41.0885 23.8441V23.8501Z" fill="#7D8488"/>
<path d="M56.3028 18.7325C56.3028 19.5301 55.6551 20.1838 54.8515 20.1838C54.0479 20.1838 53.4003 19.5361 53.4003 18.7325C53.4003 17.9289 54.0539 17.2812 54.8515 17.2812C55.6491 17.2812 56.3028 17.9289 56.3028 18.7325Z" fill="#5B98D2"/>
<path d="M54.8516 20.8555C53.9161 20.8555 53.0825 21.2873 52.5308 21.9589C51.979 21.2873 51.1454 20.8555 50.2099 20.8555C48.5607 20.8555 47.2174 22.1988 47.2174 23.848V26.8405H48.5667V23.848C48.5667 22.9424 49.3044 22.2048 50.2099 22.2048C51.1155 22.2048 51.8591 22.9424 51.8591 23.848V26.8405H53.2084V23.848C53.2084 22.9424 53.946 22.2048 54.8576 22.2048C55.7691 22.2048 56.5068 22.9424 56.5068 23.848V26.8405H57.8561V23.848C57.8561 22.1988 56.5128 20.8555 54.8636 20.8555H54.8516Z" fill="#7D8488"/>
<path d="M19.4153 56.2734H18.7496V57.4788H16.7406V58.0306H21.928H22.0419V57.9166V57.4788H19.4153V56.2734Z" fill="white"/>
<path d="M20.6866 55.6427V55.9545C20.6866 56.2424 20.5067 56.89 20.4108 57.1719H21.0524C21.2743 56.7281 21.3523 56.2244 21.3523 55.9245V55.3968C21.3523 55.1929 21.1844 55.043 20.9925 55.043H17.4482V55.5827H20.6267C20.6686 55.5827 20.6866 55.6007 20.6866 55.6427Z" fill="white"/>
<path d="M19.3913 58.3242C18.2998 58.3242 17.4062 58.696 17.4062 59.5116C17.4062 60.3272 18.2998 60.693 19.3913 60.693C20.4827 60.693 21.3763 60.3272 21.3763 59.5116C21.3763 58.696 20.4887 58.3242 19.3913 58.3242ZM19.3913 60.1533C18.6236 60.1533 18.1079 59.9434 18.1079 59.5176C18.1079 59.0918 18.6236 58.8759 19.3913 58.8759C20.1589 58.8759 20.6746 59.0918 20.6746 59.5176C20.6746 59.9434 20.1649 60.1533 19.3913 60.1533Z" fill="white"/>
<path d="M25.4783 58.3281C24.7647 58.3281 23.5773 58.544 23.5773 59.5275C23.5773 60.511 24.6447 60.7089 25.4783 60.7089C26.3119 60.7089 27.3734 60.523 27.3734 59.5275C27.3734 58.532 26.3059 58.3281 25.4783 58.3281ZM25.4843 60.1632C24.8906 60.1632 24.2309 60.0433 24.2309 59.5275C24.2309 59.0118 24.8906 58.8739 25.4843 58.8739C26.078 58.8739 26.7257 59.0178 26.7257 59.5275C26.7257 60.0373 26.066 60.1632 25.4843 60.1632Z" fill="white"/>
<path d="M24.3508 57.1071C24.6447 57.4789 25.2024 57.8567 25.6521 58.0426L26.0719 57.5988C25.5322 57.365 24.6806 56.8792 24.6806 56.2615V55.7038H25.8021V55.1641H22.8995V55.7038H23.997V56.2615C23.997 56.7773 23.3793 57.3949 22.5277 57.7488L22.9475 58.1806C23.4273 57.9946 24.027 57.5149 24.3568 57.1011L24.3508 57.1071Z" fill="white"/>
<path d="M25.4843 56.7412H26.7136V58.2585H27.2534H27.3733V58.1385V54.9961H26.7136V56.1775H25.4843V56.7412Z" fill="white"/>
<path d="M32.2369 56.7736H31.0555V55.6341C31.0555 55.4482 30.9176 55.2743 30.7077 55.2743H28.2969V55.838H30.3179C30.3599 55.838 30.3838 55.856 30.3838 55.898V57.4213C30.3778 58.4647 29.0285 59.0464 28.153 59.2563L28.5008 59.7361C29.6582 59.4722 31.0615 58.7286 31.0615 57.3313H32.2429V60.5877H32.9086V60.4677V54.9805H32.2429V56.7676L32.2369 56.7736Z" fill="white"/>
<path d="M37.862 56.8653H37.2204V54.9883H36.5547V60.4635H37.1064H37.2204V60.3436V57.4291H37.862V60.5955H38.4138H38.5277V60.4815V54.9883H37.862V56.8653Z" fill="white"/>
<path d="M34.4378 58.7528C34.3958 58.7528 34.3778 58.7348 34.3778 58.6928V57.4455H35.943V57.0916V55.2266H33.7122V55.7603H35.2714V56.8577C35.2714 56.8997 35.2534 56.9237 35.2114 56.9237H33.7122V58.9507C33.7122 59.1486 33.8621 59.3045 34.072 59.3045C35.0975 59.3045 35.6192 59.2446 36.2789 59.1486V58.6149C35.5053 58.7348 34.9595 58.7648 34.4378 58.7588V58.7528Z" fill="white"/>
<path d="M41.0345 57.6136C41.9281 57.6136 42.5937 57.1098 42.5937 56.3482C42.5937 55.5866 41.97 55.0469 41.0345 55.0469C40.099 55.0469 39.4453 55.5926 39.4453 56.3482C39.4453 57.1038 40.039 57.6136 41.0345 57.6136ZM41.0345 55.5746C41.6402 55.5746 41.9521 55.9044 41.9521 56.3482C41.9521 56.732 41.6222 57.0799 41.0345 57.0799C40.4468 57.0799 40.105 56.756 40.105 56.3482C40.105 55.9404 40.4588 55.5746 41.0345 55.5746Z" fill="white"/>
<path d="M43.2714 60.5973H43.8291H43.943V60.4834V54.9961H43.2714V60.5973Z" fill="white"/>
<path d="M39.2354 58.0588V58.6285H40.6267V60.5656H41.2983V58.6285C42.036 58.6105 42.5157 58.5806 42.9535 58.4426L43.0375 58.4126V57.8789C42.5217 57.9988 41.8081 58.0588 41.1124 58.0588H39.2413H39.2354Z" fill="white"/>
<path d="M46.4498 57.1112C47.1814 57.1112 47.9431 56.7814 47.9431 56.0498C47.9431 55.3181 47.1814 54.9883 46.4498 54.9883C45.7182 54.9883 44.9565 55.3241 44.9565 56.0498C44.9565 56.7754 45.7182 57.1112 46.4498 57.1112ZM46.4498 55.51C46.8936 55.51 47.2954 55.654 47.2954 56.0498C47.2954 56.4456 46.8876 56.5895 46.4498 56.5895C46.03 56.5895 45.6042 56.4276 45.6042 56.0498C45.6042 55.6719 46.03 55.51 46.4498 55.51Z" fill="white"/>
<path d="M47.1095 58.8702H48.7407V59.4099H49.2924H49.4123V59.2899V54.9961H48.7407V58.3064H47.1095V58.8702Z" fill="white"/>
<path d="M46.2279 59.9711V59.1016H45.5563V60.241C45.5563 60.4449 45.7242 60.6008 45.9161 60.6008H49.4903V60.4809V60.0251H46.2819C46.2819 60.0251 46.2279 60.0071 46.2279 59.9651V59.9711Z" fill="white"/>
<path d="M45.8381 58.8552H46.5218V57.9377C47.1455 57.9377 47.979 57.9137 48.4048 57.7518L48.4888 57.7158V57.1641C48.033 57.278 47.1754 57.356 46.4438 57.356H44.7167V57.9317H45.8381V58.8492V58.8552Z" fill="white"/>
<path d="M53.7661 55.5417H52.3448V54.918H51.6672V55.5417H50.2759V56.1114H53.7661V55.5417Z" fill="white"/>
<path d="M52.3748 58.575C53.0345 58.4611 53.5262 58.0113 53.5262 57.4236C53.5262 56.7339 52.8486 56.2422 52.021 56.2422C51.1934 56.2422 50.5277 56.7399 50.5277 57.4236C50.5277 58.0353 51.0195 58.4731 51.7091 58.581V59.1747H50.1979V59.7264H51.865C52.7166 59.7264 53.5562 59.6965 53.982 59.5345L54.0659 59.4986V59.4326V58.9708C53.5982 59.0908 52.9565 59.1447 52.3748 59.1627V58.563V58.575ZM51.2174 57.4236C51.2174 57.0458 51.5712 56.7939 52.027 56.7939C52.4827 56.7939 52.8366 57.0518 52.8366 57.4236C52.8366 57.7954 52.4947 58.0533 52.027 58.0533C51.5592 58.0533 51.2174 57.8014 51.2174 57.4236Z" fill="white"/>
<path d="M54.3119 54.9883V60.5955H54.8636H54.9836V60.4815V54.9883H54.3119Z" fill="white"/>
<path d="M13.8501 34.4648C14.6477 35.7721 16.7767 37.1634 18.018 37.5532L18.8996 36.4738C17.4303 35.988 14.5518 34.2609 14.5518 32.4738V30.7227H13.1545V32.4738C13.1545 34.3209 10.2399 35.994 8.75867 36.4738L9.67621 37.5652C11.0615 37.0915 13.0345 35.6642 13.8561 34.4648H13.8501Z" fill="#7D8488"/>
<path d="M14.5457 36.8633H13.1364V40.0717H8.30884V41.367H19.0914H19.3373V41.0972V40.0717H14.5457V36.8633Z" fill="#7D8488"/>
<path d="M39.7691 30.1641H38.3718V42.9988H39.5232H39.7691V42.7229V36.0536H41.3463V34.7762H39.7691V30.1641Z" fill="#7D8488"/>
<path d="M34.4138 34.6926V32.0899H36.9745V30.8125H30.5157V32.0899H33.0045V34.6386C33.0045 35.9339 31.3853 38.1528 29.8561 39.1963L30.8456 40.1798C31.7511 39.5741 33.1005 37.9309 33.7481 36.8635C34.3358 37.793 35.6252 39.3462 36.5307 39.9519L37.4603 38.9564C36.075 38.0149 34.4078 36.0599 34.4078 34.6986L34.4138 34.6926Z" fill="#7D8488"/>
<path d="M42.7076 34.2063L43.4873 35.2557C44.7706 34.8659 46.5637 33.9904 47.4093 32.815C48.2909 33.9304 50.006 34.8659 51.3553 35.2557L52.1169 34.2063C50.018 33.6006 48.7946 32.713 48.3208 31.7535L48.2609 31.6216H51.4093V30.4102H43.4333V31.6216H46.6057L46.5457 31.7415C45.994 32.767 44.8546 33.5766 42.7136 34.2063H42.7076Z" fill="#7D8488"/>
<path d="M41.8501 37.1445H46.7017V38.278C44.4588 38.4279 43.2474 39.3155 43.2474 40.7547C43.2474 42.3739 44.7287 43.2495 47.3913 43.2495C50.054 43.2495 51.5173 42.32 51.5173 40.7547C51.5173 39.2975 50.3179 38.4219 48.075 38.278V37.1445H52.8906V35.8672H41.8501V37.1445ZM50.12 40.7547C50.12 41.4984 49.2984 41.9961 47.3913 41.9961C45.4843 41.9961 44.6567 41.5104 44.6567 40.7547C44.6567 40.0411 45.4903 39.4714 47.3913 39.4714C49.2924 39.4714 50.12 40.0351 50.12 40.7547Z" fill="#7D8488"/>
<path d="M27.6372 42.9991H28.8066H29.0525V42.7232V30.1523H27.6372V42.9991Z" fill="#7D8488"/>
<path d="M24.5787 34.0969H21.4183V30.7266H20.033V39.2543C20.033 39.6981 20.3388 40.0639 20.7826 40.0639H25.976V30.7266H24.5787V34.0969ZM24.5787 38.6546V38.7865H21.5382C21.4542 38.7865 21.4123 38.7446 21.4123 38.6546V35.3922H24.5727V38.6546H24.5787Z" fill="#7D8488"/>
<path d="M61.88 37.4804H63.0074H63.2533V37.2105V30.1641H61.88V37.4804Z" fill="#7D8488"/>
<path d="M57.0165 34.7356C57.5682 35.5572 58.9895 36.5707 60.069 36.9605L60.8546 35.947C59.4453 35.2574 57.6702 34.1419 57.6702 32.7506V30.3398H56.2369V32.7806C56.2369 34.3278 54.7076 35.6772 53.2024 36.4748L54.1199 37.4463C55.4093 36.7207 56.4468 35.5872 57.0225 34.7356H57.0165Z" fill="#7D8488"/>
<path d="M55.2174 42.2263C55.2174 42.7001 55.5352 43.0359 55.967 43.0359H63.1574V42.2263V38.2383H55.2174V42.2263ZM56.5667 39.4737H61.8081V41.7945H56.6867C56.6027 41.7945 56.5667 41.7525 56.5667 41.6566V39.4737Z" fill="#7D8488"/>
</g>
<defs>
<clipPath id="clip0_4393_15134">
<rect x="2" y="2" width="68" height="68" rx="34" fill="white"/>
</clipPath>
</defs>
</svg>
